<?xml version="1.0" encoding="UTF-8"?><svg id="Capa_2" xmlns="http://www.w3.org/2000/svg" viewBox="0 0 82.96 121.85"><defs><style>.cls-1{fill:#fff;stroke-width:0px;}</style></defs><g id="Capa_1-2"><path class="cls-1" d="M43.7,105c.78-3.03,1.71-8.32,1-16v-53c3.9.77,10.62,2.69,17,8,9.68,8.06,12.24,18.64,13,22,.78,3.42.95,6.36,1,8,.18,6.47-1.19,11.5-2,14-.7,2.14-1.45,3.85-2,5-.11.37-.21.84,0,1,.39.3,1.6-.68,2-1,2.72-2.19,7.5-10.84,9-22,.21-1.59.46-4,0-7-.28-1.78-.7-3.12-1-4-1.26-3.73-5.73-16.98-14.19-26.85-.5-.58-1.53-1.79-2.81-3.15-.08-.08.03.03-7-7-5.55-5.55-8.39-8.43-11-13-.94-1.64-1.59-3.06-2-4V0h-6v88c-3.31-.5-8.21-.89-14,0-4.93.76-10.81,1.67-16,6-4.54,3.79-10.81,12.08-8,19,2.18,5.35,8.65,7.1,12,8,11.25,3.04,20.53-3.01,22-4,1.94-1.31,5.83-4.01,8-9,.34-.77.65-1.64,1-3Z"/></g></svg>