<?xml version="1.0" encoding="UTF-8"?><svg id="Capa_2" xmlns="http://www.w3.org/2000/svg" viewBox="0 0 81.88 121.83"><defs><style>.cls-1{stroke-width:6px;}.cls-1,.cls-2{fill:#000;stroke:#000;stroke-miterlimit:10;}.cls-2{stroke-width:.25px;}</style></defs><g id="Capa_1-2"><path class="cls-1" d="M41.41,0c-.11,58.76-.09,82.96,0,88,0,.08.03,1.75,0,4-.09,6.8-.14,10.2-1,13-1.8,5.88-6.82,9.22-8,10-9.93,6.6-26.31,4.04-29-3-2.03-5.31,4.15-12.07,5-13,10.9-11.93,30.85-7.51,33-7"/><path class="cls-2" d="M43.38,1.28c.37,1.41.99,3.53,2,6,4.48,10.95,11.75,16.9,16,21,2.66,2.57,17.54,16.92,20,34,2.43,16.88-7.99,31.32-9,31-.99-.31,6.93-14.73,2-31-3.67-12.12-12.56-18.93-14-20-6.21-4.63-12.43-6.32-16-7-.33-11.33-.67-22.67-1-34Z"/></g></svg>