<?xml version="1.0" encoding="UTF-8"?><svg id="Capa_2" xmlns="http://www.w3.org/2000/svg" viewBox="0 0 112.89 151.78"><defs><style>.cls-1{stroke-width:6px;}.cls-1,.cls-2{fill:#fff;stroke:#fff;stroke-miterlimit:10;}</style></defs><g id="Capa_1-2"><path class="cls-1" d="M41.41,92.26c-2.15-.51-22.1-4.93-33,7-.85.93-7.03,7.69-5,13,2.69,7.04,19.07,9.6,29,3,1.18-.78,6.2-4.12,8-10,.86-2.8.91-6.2,1-13,.03-2.25,0-3.92,0-4-.11-6.12-.36-38.89-.69-87.68"/><path class="cls-1" d="M109.88,29.95c-.11,58.76-.09,82.96,0,88,0,.08.03,1.75,0,4-.09,6.8-.14,10.2-1,13-1.8,5.88-6.82,9.22-8,10-9.93,6.6-26.31,4.04-29-3-2.03-5.31,4.15-12.07,5-13,10.9-11.93,30.85-7.51,33-7"/><path class="cls-2" d="M42.72,24.58c23,9.39,46,18.78,69,28.17v-23.17C88.72,19.97,65.72,10.36,42.72.75v23.83Z"/></g></svg>