<svg width="160" height="156" viewBox="0 0 160 156" fill="none" xmlns="http://www.w3.org/2000/svg">
<path d="M59.0682 11.0651C70.2069 -1.47191 89.7931 -1.47193 100.932 11.065L113.795 25.5429C116.676 28.786 120.227 31.3657 124.202 33.1039L141.946 40.8635C157.311 47.5829 163.364 66.2105 154.883 80.6782L145.088 97.3857C142.894 101.128 141.538 105.302 141.113 109.62L139.217 128.893C137.574 145.583 121.729 157.095 105.348 153.5L86.4318 149.348C82.1944 148.418 77.8056 148.418 73.5682 149.348L54.6519 153.5C38.2715 157.095 22.4258 145.583 20.7835 128.893L18.8869 109.62C18.462 105.302 17.1058 101.128 14.9118 97.3857L5.11751 80.6782C-3.36381 66.2106 2.68867 47.5829 18.0541 40.8635L35.7982 33.1039C39.7731 31.3657 43.3236 28.786 46.2051 25.5429L59.0682 11.0651Z" stroke="black" stroke-width="2"/>
</svg>
