<svg width="111" height="153" viewBox="0 0 111 153" fill="none" xmlns="http://www.w3.org/2000/svg">
<path d="M40.4101 94.26C38.2601 93.75 18.3101 89.33 7.41006 101.26C6.56006 102.19 0.380059 108.95 2.41006 114.26C5.10006 121.3 21.4801 123.86 31.4101 117.26C32.5901 116.48 37.6101 113.14 39.4101 107.26C40.2701 104.46 40.3201 101.06 40.4101 94.26C40.4401 92.01 40.4101 90.34 40.4101 90.26C40.3001 84.14 40.0501 51.37 39.7201 2.57999" fill="white"/>
<path d="M108.88 31.95C108.77 90.71 108.79 114.91 108.88 119.95C108.88 120.03 108.91 121.7 108.88 123.95C108.79 130.75 108.74 134.15 107.88 136.95C106.08 142.83 101.06 146.17 99.8801 146.95C89.9501 153.55 73.5701 150.99 70.8801 143.95C68.8501 138.64 75.0301 131.88 75.8801 130.95C86.7801 119.02 106.73 123.44 108.88 123.95" fill="white"/>
<path d="M39.8845 26.5C62.8845 35.89 85.8415 45.11 108.842 54.5V31C85.8415 21.39 62.7297 13.61 39.7297 4L39.8845 26.5Z" fill="white"/>
<path d="M40.4101 94.26C38.2601 93.75 18.3101 89.33 7.41006 101.26C6.56006 102.19 0.380059 108.95 2.41006 114.26C5.10006 121.3 21.4801 123.86 31.4101 117.26C32.5901 116.48 37.6101 113.14 39.4101 107.26C40.2701 104.46 40.3201 101.06 40.4101 94.26ZM40.4101 94.26C40.4401 92.01 40.4101 90.34 40.4101 90.26C40.3001 84.14 40.0501 51.37 39.7201 2.57999M108.88 31.95C108.77 90.71 108.79 114.91 108.88 119.95C108.88 120.03 108.91 121.7 108.88 123.95M108.88 123.95C108.79 130.75 108.74 134.15 107.88 136.95C106.08 142.83 101.06 146.17 99.8801 146.95C89.9501 153.55 73.5701 150.99 70.8801 143.95C68.8501 138.64 75.0301 131.88 75.8801 130.95C86.7801 119.02 106.73 123.44 108.88 123.95ZM39.8845 26.5C62.8845 35.89 85.8415 45.11 108.842 54.5V31C85.8415 21.39 62.7297 13.61 39.7297 4L39.8845 26.5Z" stroke="white" stroke-width="4" stroke-miterlimit="10"/>
</svg>
