<svg width="85" height="122" viewBox="0 0 85 122" fill="none" xmlns="http://www.w3.org/2000/svg">
<path d="M42.96 2.70001C43.58 5.38001 44.38 7.41001 44.96 8.70001C45.86 10.72 48.12 15.2 61.38 28.28C62.31 29.2 62.34 29.22 62.73 29.61C67.28 34.17 79.19 47.15 81.38 62.28C83.81 79.16 73.39 93.6 72.38 93.28C71.39 92.97 79.31 78.55 74.38 62.28C70.71 50.16 61.82 43.35 60.38 42.28C54.17 37.65 47.95 35.96 44.38 35.28C43.91 24.42 43.43 13.56 42.96 2.70001Z" fill="white"/>
<path d="M41.4101 0C41.3001 58.76 41.3201 82.96 41.4101 88C41.4101 88.08 41.4401 89.75 41.4101 92C41.3201 98.8 41.2701 102.2 40.4101 105C38.6101 110.88 33.5901 114.22 32.4101 115C22.4801 121.6 6.10006 119.04 3.41006 112C1.38006 106.69 7.56006 99.93 8.41006 99C19.3101 87.07 39.2601 91.49 41.4101 92" fill="white"/>
<path d="M41.4101 0C41.3001 58.76 41.3201 82.96 41.4101 88C41.4101 88.08 41.4401 89.75 41.4101 92M41.4101 92C41.3201 98.8 41.2701 102.2 40.4101 105C38.6101 110.88 33.5901 114.22 32.4101 115C22.4801 121.6 6.10006 119.04 3.41006 112C1.38006 106.69 7.56006 99.93 8.41006 99C19.3101 87.07 39.2601 91.49 41.4101 92ZM42.96 2.70001C43.58 5.38001 44.38 7.41001 44.96 8.70001C45.86 10.72 48.12 15.2 61.38 28.28C62.31 29.2 62.34 29.22 62.73 29.61C67.28 34.17 79.19 47.15 81.38 62.28C83.81 79.16 73.39 93.6 72.38 93.28C71.39 92.97 79.31 78.55 74.38 62.28C70.71 50.16 61.82 43.35 60.38 42.28C54.17 37.65 47.95 35.96 44.38 35.28C43.91 24.42 43.43 13.56 42.96 2.70001Z" stroke="white" stroke-width="6" stroke-miterlimit="10"/>
</svg>
